<svg height="512pt" viewBox="0 -61 512 512" width="512pt" xmlns="http://www.w3.org/2000/svg"><path d="m328.042969 144.734375c-7.003907-35.902344-32.070313-64.492187-64.074219-77.273437 3.828125-6.617188 6.03125-14.285157 6.03125-22.460938 0-24.8125-20.1875-45-45-45s-45 20.1875-45 45c0 8.191406 2.210938 15.871094 6.050781 22.492188-23.28125 9.335937-42.464843 26.777343-54.050781 48.8125-13.902344-16.210938-34.507812-26.304688-57-26.304688-41.355469 0-75 33.644531-75 75 0 37.617188 15.875 73.816406 43.558594 99.3125 26.382812 24.308594 60.394531 36.957031 96.574218 35.589844 11.660157 9.453125 24.917969 17.003906 39.304688 22.175781-3.40625 21.460937-22.03125 37.921875-44.4375 37.921875h-45v30h270v-30h-45c-21.085938 0-38.824219-14.582031-43.679688-34.1875 63.414063-11.507812 121.027344-46.273438 159.679688-97.8125l81-108h-77.433594c-1.902344.535156-46.34375 16.632812-106.523437 24.734375zm-118.042969-99.734375c0-8.269531 6.730469-15 15-15s15 6.730469 15 15-6.730469 15-15 15-15-6.730469-15-15zm15 45c35.621094 0 65.398438 24.550781 73.070312 57.996094-15.980468 1.324218-32 2.003906-47.9375 2.003906h-98.625c6.96875-34.191406 37.273438-60 73.492188-60zm-195 75c0-24.8125 20.1875-45 45-45 20.375 0 38.164062 13.78125 43.425781 33.175781-16.632812 6.617188-28.425781 22.863281-28.425781 41.824219 0 26.574219 7.722656 51.378906 21.035156 72.292969-17.429687-4.039063-33.566406-12.53125-47.152344-25.042969-21.53125-19.835938-33.882812-47.992188-33.882812-77.25zm225.039062 195h-60.078124c6.757812-8.984375 11.53125-19.53125 13.707031-30.988281 5.355469.644531 10.804687.988281 16.332031.988281 5.492188 0 10.964844-.191406 16.414062-.535156 2.214844 11.28125 6.957032 21.671875 13.625 30.535156zm196.960938-210-45 60c-42.265625 56.355469-110.304688 90-182 90-57.898438 0-105-47.101562-105-105 0-8.269531 6.730469-15 15-15h115.132812c64.132813 0 129.519532-10.367188 189.285157-30zm0 0"/></svg>